<?xml version="1.0" encoding="utf-8"?>
<!-- Generator: Adobe Illustrator 21.1.0, SVG Export Plug-In . SVG Version: 6.00 Build 0)  -->
<svg version="1.1" id="design" xmlns="http://www.w3.org/2000/svg" xmlns:xlink="http://www.w3.org/1999/xlink" x="0px" y="0px"
	 viewBox="0 0 200 180" style="enable-background:new 0 0 200 180;" xml:space="preserve">
<style type="text/css">
	.st0{fill:#ED8B00;}
	.st1{fill:#FBB040;}
	.st2{fill:#0383DB;}
	.st3{fill:#005EB8;}
	.st4{fill:#FFFFFF;}
</style>
<title>service-options</title>
<path class="st0" d="M109.4,68.6v-14h27.4v14h11.4V52.2c0-4.8-3.9-8.8-8.8-8.8c0,0,0,0,0,0h-32.1c-4.8,0-8.8,3.9-8.8,8.8
	c0,0,0,0,0,0v16.3H109.4z"/>
<path class="st1" d="M191.8,68.6H54.3c-4.5,0-8.1,3.7-8.2,8.2v95.1c0,4.5,3.7,8.1,8.2,8.2h137.5c4.5,0,8.1-3.7,8.2-8.2V76.6
	C200,72.1,196.3,68.5,191.8,68.6C191.8,68.5,191.8,68.6,191.8,68.6z"/>
<path class="st2" d="M191.8,68.6H54.3c-4.5,0-8.1,3.7-8.2,8.2v95.1c0,4.5,3.7,8.1,8.2,8.2h137.5c4.5,0,8.1-3.7,8.2-8.2V76.6
	C200,72.1,196.3,68.5,191.8,68.6C191.8,68.5,191.8,68.6,191.8,68.6z"/>
<path class="st3" d="M199.9,114.2V76.6c0-4.5-3.7-8.1-8.2-8.2H54c-4.5,0.1-8.1,3.7-8.2,8.2v37.9C97.3,144.7,148.7,144.6,199.9,114.2
	z"/>
<path class="st0" d="M130.2,125.3h-14c-0.9,0.1-1.6,0.8-1.7,1.7v20.5c0.1,0.9,0.8,1.6,1.7,1.7h14c0.9-0.1,1.6-0.8,1.7-1.7V127
	C131.7,125.7,131.3,125.3,130.2,125.3z"/>
<path class="st1" d="M88.8,94c14.9-9.3,24.6-25,24.6-42.5C113.4,23.1,88,0,56.7,0S0,23.1,0,51.5s25.4,51.5,56.7,51.5h4.1
	c17.9,16,42.2,11.2,42.2,11.2C95.9,110.4,91.8,102.6,88.8,94z"/>
<g>
	<rect x="38.4" y="51" class="st4" width="9.7" height="12.8"/>
	<rect x="50.5" y="45.1" class="st4" width="9.7" height="18.7"/>
	<rect x="62.6" y="38.2" class="st4" width="9.7" height="25.6"/>
	<path class="st4" d="M31.1,53.2c0-3.7,0.8-7.3,2.3-10.5l-7.1-4.1C24.2,43,23,48,23,53.2c0,5.2,1.2,10.2,3.3,14.6l7.1-4.1
		C32,60.5,31.1,57,31.1,53.2z"/>
	<path class="st4" d="M54,27.9v-8.2c-10.5,0.8-19.6,6.4-25.2,14.6l7.1,4.1C40,32.6,46.6,28.7,54,27.9z"/>
	<path class="st4" d="M35.9,68l-7.1,4.1c5.6,8.2,14.7,13.8,25.2,14.6v-8.2C46.6,77.8,40,73.8,35.9,68z"/>
	<path class="st4" d="M59,19.8v8.2C71.8,29.2,81.9,40,81.9,53.2c0,13.2-10,24-22.9,25.3v8.2c17.3-1.3,31-15.8,31-33.5
		C90,35.5,76.3,21,59,19.8z"/>
</g>
</svg>
