<?xml version="1.0" encoding="utf-8"?>
<!-- Generator: Adobe Illustrator 24.2.1, SVG Export Plug-In . SVG Version: 6.00 Build 0)  -->
<svg version="1.1" id="design" xmlns="http://www.w3.org/2000/svg" xmlns:xlink="http://www.w3.org/1999/xlink" x="0px" y="0px"
	 viewBox="0 0 200 180" style="enable-background:new 0 0 200 180;" xml:space="preserve">
<style type="text/css">
	.st0{fill:none;stroke:#EAEAEA;stroke-width:6;stroke-miterlimit:10;}
	.st1{fill:#EAEAEA;}
	.st2{fill:#FBB040;}
	.st3{fill:#FFFFFF;}
	.st4{fill:#0F89DB;}
	.st5{fill:#005EB8;stroke:#005EB8;stroke-miterlimit:10;}
	.st6{enable-background:new    ;}
	.st7{fill:#0F89DB;stroke:#0F89DB;stroke-miterlimit:10;}
</style>
<polyline class="st0" points="172.1,27.4 172.1,89 139.3,89 "/>
<polygon class="st1" points="144.3,78.5 126.2,89 144.3,99.4 "/>
<line class="st0" x1="29.9" y1="27.4" x2="126" y2="27.4"/>
<polygon class="st1" points="123.9,37.9 142.1,27.4 123.9,17 "/>
<polyline class="st0" points="29.9,110.8 29.9,89.5 85.4,89.5 "/>
<polygon class="st1" points="40.3,107.8 29.9,125.9 19.4,107.8 "/>
<line class="st0" x1="126.4" y1="151" x2="49.2" y2="151"/>
<polygon class="st1" points="124.3,140.6 142.5,151 124.3,161.5 "/>
<circle class="st2" cx="27.4" cy="26.8" r="26.8"/>
<path class="st3" d="M31.9,40.3v1.9c0,1.4-1.2,2.6-2.6,2.6h-3.7c-1.3,0-2.6-1-2.6-3.1v-1.4H31.9L31.9,40.3z"/>
<path class="st3" d="M34,18.7c-4.6-3.6-11.2-2.8-14.8,1.7S16.4,31.6,21,35.2c0.9,0.7,1.5,1.7,1.8,2.8H32c0.3-1.2,0.9-2.2,1.9-3
	c2.5-2,4-5,4-8.3C37.8,23.6,36.4,20.6,34,18.7z"/>
<g id="_Group_">
	<path class="st2" d="M34.1,25.4c0,0.4-0.3,0.7-0.7,0.7s-0.7-0.3-0.7-0.7c0-1.4-1.1-2.5-2.5-2.5c-0.4,0-0.7-0.3-0.7-0.7
		s0.3-0.7,0.7-0.7C32.4,21.6,34.1,23.3,34.1,25.4L34.1,25.4z"/>
	<path class="st2" d="M34.1,25.4c0,0.4-0.3,0.7-0.7,0.7s-0.7-0.3-0.7-0.7c0-1.4-1.1-2.5-2.5-2.5c-0.4,0-0.7-0.3-0.7-0.7
		s0.3-0.7,0.7-0.7C32.4,21.6,34.1,23.3,34.1,25.4L34.1,25.4z"/>
</g>
<rect x="26.3" y="8.8" class="st3" width="2.2" height="5.2"/>
<rect x="40.2" y="25.7" class="st3" width="5.2" height="2.2"/>
<rect x="9.4" y="25.7" class="st3" width="5.2" height="2.2"/>
<rect x="15.4" y="13.3" transform="matrix(0.7071 -0.7071 0.7071 0.7071 -6.4113 16.3342)" class="st3" width="2.2" height="5.2"/>
<rect x="13.9" y="36.6" transform="matrix(0.7071 -0.7071 0.7071 0.7071 -21.8187 22.7229)" class="st3" width="5.2" height="2.2"/>
<rect x="35.7" y="14.8" transform="matrix(0.7071 -0.7071 0.7071 0.7071 -2.183737e-02 31.7482)" class="st3" width="5.2" height="2.2"/>
<rect x="37.2" y="35.1" transform="matrix(0.7071 -0.7071 0.7071 0.7071 -15.4293 38.1369)" class="st3" width="2.2" height="5.2"/>
<circle class="st4" cx="172.1" cy="26.8" r="22.3"/>
<circle class="st5" cx="172.1" cy="152.7" r="26.8"/>
<g class="st6">
	<path class="st3" d="M174.7,38.8h-4.8V25.6v-2.2L170,21c-0.8,0.8-1.4,1.3-1.7,1.6l-2.6,2.1l-2.3-2.9l7.4-5.9h4L174.7,38.8
		L174.7,38.8z"/>
</g>
<circle class="st7" cx="99.8" cy="89.5" r="22.3"/>
<g class="st6">
	<path class="st3" d="M107.9,101.1h-16v-3.4l5.7-5.8c1.7-1.7,2.8-2.9,3.3-3.6s0.9-1.3,1.1-1.9s0.3-1.2,0.3-1.8c0-0.9-0.3-1.6-0.8-2
		s-1.2-0.7-2-0.7c-0.9,0-1.7,0.2-2.6,0.6c-0.8,0.4-1.7,1-2.6,1.7l-2.6-3.1c1.1-1,2.1-1.6,2.8-2c0.7-0.4,1.5-0.7,2.4-0.9
		c0.9-0.2,1.9-0.3,2.9-0.3c1.4,0,2.7,0.3,3.8,0.8c1.1,0.5,1.9,1.3,2.5,2.2c0.6,0.9,0.9,2,0.9,3.2c0,1.1-0.2,2-0.6,3
		c-0.4,0.9-0.9,1.9-1.7,2.8c-0.8,1-2.1,2.3-4.1,4.1l-2.9,2.8V97h10v4.1H107.9z"/>
</g>
<circle class="st4" cx="29.9" cy="151" r="22.3"/>
<g class="st6">
	<path class="st3" d="M37.1,144.8c0,1.4-0.4,2.6-1.3,3.6c-0.9,1-2.1,1.7-3.6,2.1v0.1c1.8,0.2,3.2,0.8,4.2,1.7
		c0.9,0.9,1.4,2.1,1.4,3.6c0,2.2-0.8,3.9-2.4,5.1c-1.6,1.2-3.9,1.8-6.8,1.8c-2.5,0-4.7-0.4-6.6-1.2v-4.1c0.9,0.4,1.9,0.8,2.9,1.1
		c1,0.3,2.1,0.4,3.2,0.4c1.6,0,2.8-0.3,3.5-0.8c0.8-0.5,1.1-1.4,1.1-2.6c0-1.1-0.4-1.8-1.3-2.3c-0.9-0.4-2.3-0.7-4.2-0.7h-1.7v-3.7
		h1.8c1.8,0,3.1-0.2,3.9-0.7s1.2-1.3,1.2-2.4c0-1.7-1.1-2.6-3.3-2.6c-0.8,0-1.5,0.1-2.3,0.4s-1.6,0.7-2.6,1.3l-2.2-3.3
		c2.1-1.5,4.6-2.3,7.5-2.3c2.4,0,4.2,0.5,5.6,1.4C36.4,141.6,37.1,143,37.1,144.8z"/>
</g>
<path class="st3" d="M157.5,146.3l-2.3,0.8c-0.2,0.1-0.4,0.2-0.4,0.4l-1,2.1l-0.8-2.3c-0.1-0.2-0.2-0.4-0.4-0.4l-2.1-1l2.3-0.8
	c0.2-0.1,0.4-0.2,0.4-0.4l1-2.1l0.8,2.3c0.1,0.2,0.2,0.4,0.4,0.4L157.5,146.3z"/>
<path class="st3" d="M188.5,169.1l-2.3,0.8c-0.2,0.1-0.4,0.2-0.4,0.4l-1,2.1l-0.8-2.3c-0.1-0.2-0.2-0.4-0.4-0.4l-2.1-1l2.3-0.8
	c0.2-0.1,0.4-0.2,0.4-0.4l1-2.1l0.8,2.3c0.1,0.2,0.2,0.4,0.4,0.4L188.5,169.1z"/>
<path class="st3" d="M168.7,138l-3.9,1.3c-0.4,0.1-0.6,0.4-0.7,0.7l-1.6,3.8l-1.3-3.9c-0.1-0.4-0.4-0.6-0.7-0.7l-3.8-1.6l3.9-1.3
	c0.4-0.1,0.6-0.4,0.7-0.7l1.6-3.8l1.3,3.9c0.1,0.4,0.4,0.6,0.7,0.7L168.7,138z"/>
<g>
	<rect x="158.8" y="148.7" class="st3" width="4.8" height="14.1"/>
	<rect x="166.1" y="143.9" class="st3" width="4.8" height="18.8"/>
	<rect x="173.3" y="152.3" class="st3" width="4.8" height="10.5"/>
	<rect x="180.5" y="142.6" class="st3" width="4.8" height="20.1"/>
</g>
</svg>
