<svg id="design" xmlns="http://www.w3.org/2000/svg" viewBox="0 0 200 180"><defs><style>.cls-1{fill:#70bef2;}.cls-2{fill:#c3e7fc;}.cls-3{fill:#e3f4fc;}.cls-4{fill:#fff;}.cls-11,.cls-5{fill:#005eb8;}.cls-6,.cls-8{fill:#0a0080;}.cls-7{fill:#0383db;}.cls-8{stroke:#0a0080;stroke-width:2px;}.cls-11,.cls-8{stroke-miterlimit:10;}.cls-9{fill:#ed8b00;}.cls-10{fill:#fbb040;}.cls-11{stroke:#005eb8;}</style></defs><title>service-options</title><path class="cls-1" d="M100,60.38l-6.6,43.49L100,180l65.61-21.75V82.13Z"/><path class="cls-2" d="M34.39,82.13v76.12L100,180V60.38Z"/><path class="cls-3" d="M81.12,133.87l18.88-30L34.39,82.13l-18.88,30Z"/><path class="cls-4" d="M143.23,142.93c0-3.51-2.38-5.58-9.21-6.52-5.31-.73-11.27-1.89-11.6-9.32-.14-3.18.84-8,5.49-12.61l-15.35,5v44.31l12.25-4C136.81,155.89,143.23,150.09,143.23,142.93Z"/><path class="cls-4" d="M146.27,138a8.45,8.45,0,0,1,.67,2.74l9.93-3.25v-3Z"/><path class="cls-4" d="M141.53,133.66a10.18,10.18,0,0,1,3.2,1.91l12.15-4v-3Z"/><path class="cls-4" d="M156.87,140.46,147,143.69a16.35,16.35,0,0,1-.8,3.22l10.67-3.49Z"/><path class="cls-4" d="M156.87,108v-3l-12.71,4.16c-4.89,1.6-10.16,3.92-13.8,7.47Z"/><path class="cls-4" d="M144.48,150.42a22,22,0,0,1-3.27,4l15.66-5.12v-3Z"/><path class="cls-4" d="M127.45,120.55a11.68,11.68,0,0,0-1.08,3.31l30.5-10v-3Z"/><path class="cls-4" d="M130.52,131.36a28.43,28.43,0,0,0,4.8.92l1,.13,20.54-6.72v-3Z"/><path class="cls-4" d="M126.37,126.81a4.57,4.57,0,0,0,1.11,2.59l29.39-9.61v-3Z"/><path class="cls-2" d="M118.88,133.87l-18.88-30,65.61-21.75,18.88,30Z"/><circle class="cls-4" cx="113.51" cy="47.91" r="42.65"/><rect class="cls-5" y="39.99" width="66.09" height="15.83"/><rect class="cls-6" x="64.49" y="43.13" width="7.45" height="9.5"/><rect class="cls-7" x="62.95" y="38.4" width="3.13" height="18.96"/><path class="cls-8" d="M198.35,105.86a5,5,0,0,1-1.49-1.07,3.49,3.49,0,0,0-3.64.55l-22-33a3.45,3.45,0,1,0-6-2.29,3.62,3.62,0,0,0,.09.7l-10.67,9.62a3.47,3.47,0,0,0-4.5-1.87L136.9,51.61a1.91,1.91,0,0,0,.66-.57A3.45,3.45,0,0,0,132.88,46l-.19.19a3.15,3.15,0,0,0-.52.66l-19.33-8.89a2.83,2.83,0,0,0,.19-1.12A3.42,3.42,0,1,0,108.3,40L94.55,53l-.29-.06a3.4,3.4,0,0,0-2.15-.49l-.28.06-.31.07-.14,0a3.44,3.44,0,0,0-2.45,2.88h.14a3.43,3.43,0,0,0,0,.75c0,.06,0,.12,0,.18H89a3.4,3.4,0,0,0,.33,1.1L56.14,78.95H19a3.44,3.44,0,0,0-3.74-3.1h0a4,4,0,0,0-3.13,3.7h0a3.43,3.43,0,0,0,6.83.37h37.4L89.79,58.21a3.43,3.43,0,0,0,3,1.2,3.4,3.4,0,0,0,1.51-.56h0a3.42,3.42,0,0,0,.48-.39l0,0,.06-.08a3.43,3.43,0,0,0,.26-.31c.06-.08.11-.17.17-.25s.1-.16.14-.24a3.43,3.43,0,0,0,.36-1.17h0a3.43,3.43,0,0,0,0-.75c0-.06,0-.12,0-.18h.1a3.4,3.4,0,0,0-1-2c.26,0,.76,0,.43-.06l13.75-12.91a2.67,2.67,0,0,0,.61,0,3.4,3.4,0,0,0,2.44-1,3.15,3.15,0,0,0,.52-.66L132,47.67a2.83,2.83,0,0,0-.19,1.12,3.41,3.41,0,0,0,3.4,3.42h0a3,3,0,0,0,1.08-.19L149.5,78.91a4.09,4.09,0,0,0-.46.37,3.45,3.45,0,1,0,4.72,5l.16-.16a3.51,3.51,0,0,0,1-2.49,2.67,2.67,0,0,0,0-.61l10.63-9.53a7.7,7.7,0,0,0,.66,1,3.48,3.48,0,0,0,4.5.32l22,33a3.43,3.43,0,0,0,.75,4.77,3.48,3.48,0,0,0,4.77-.75,3.38,3.38,0,0,0,0-3.93Z"/><path class="cls-5" d="M191,108.05a4.55,4.55,0,1,1,4.59,4.51,4.62,4.62,0,0,1-3.24-1.34A4.44,4.44,0,0,1,191,108.05Z"/><path class="cls-5" d="M164.13,70.15a4.55,4.55,0,1,1,4.59,4.51,4.62,4.62,0,0,1-3.24-1.34A4.31,4.31,0,0,1,164.13,70.15Z"/><path class="cls-5" d="M148.25,78.51a4.48,4.48,0,1,1-1.34,3.15A4.77,4.77,0,0,1,148.25,78.51Z"/><path class="cls-5" d="M11,79.55a4.55,4.55,0,1,1,4.55,4.55,4.66,4.66,0,0,1-3.27-1.35A4.27,4.27,0,0,1,11,79.55Z"/><circle class="cls-9" cx="109.47" cy="37.43" r="5.56"/><path class="cls-10" d="M109.47,33.38a4,4,0,1,1-4,4,4,4,0,0,1,4-4m0-3a7.07,7.07,0,1,0,7.07,7.07A7.07,7.07,0,0,0,109.47,30.35Z"/><circle class="cls-9" cx="92.66" cy="55.81" r="5.56"/><path class="cls-10" d="M92.66,51.77a4,4,0,1,1-4,4,4,4,0,0,1,4-4m0-3a7.07,7.07,0,1,0,7.07,7.07A7.07,7.07,0,0,0,92.66,48.74Z"/><circle class="cls-9" cx="133.85" cy="48.16" r="5.56"/><path class="cls-10" d="M133.85,44.12a4,4,0,1,1-4,4,4,4,0,0,1,4-4m0-3a7.07,7.07,0,1,0,7.07,7.07A7.07,7.07,0,0,0,133.85,41.08Z"/><path class="cls-11" d="M156.16,47.91a42.65,42.65,0,1,0-42.7,42.6h.05A42.7,42.7,0,0,0,156.16,47.91Zm-77.34,0a34.69,34.69,0,1,1,34.69,34.69A34.69,34.69,0,0,1,78.82,47.91Z"/><path class="cls-2" d="M185.89,29.32,181.07,31c-.51.11-.72.52-.92.83l-2,4.74-1.67-4.82c-.11-.51-.52-.72-.83-.92l-4.74-2,4.82-1.67c.51-.11.72-.52.92-.83l2-4.74,1.67,4.82c.11.51.52.72.83.92Z"/><path class="cls-2" d="M41.89,17.27l-4.82,1.67c-.51.11-.72.52-.92.83l-2,4.74-1.67-4.82c-.11-.51-.52-.72-.83-.92l-4.74-2,4.82-1.67c.51-.11.72-.52.92-.83l2-4.74,1.67,4.82c.11.51.52.72.83.92Z"/><path class="cls-3" d="M173.19,9.33l-5.78,2c-.62.13-.86.62-1.1,1L163.87,18l-2-5.78c-.13-.62-.62-.86-1-1.1l-5.68-2.44,5.78-2c.62-.13.86-.62,1.1-1L164.52,0l2,5.78c.13.62.62.86,1,1.1Z"/></svg>