<svg id="design" xmlns="http://www.w3.org/2000/svg" viewBox="0 0 200 180"><defs><style>.cls-1{fill:#e8ab7f;}.cls-2{fill:#f0f0f0;}.cls-3{fill:#fbb040;}.cls-4{fill:#005eb8;}.cls-5{fill:#ed8b00;}.cls-6{fill:#ce936b;}.cls-7{fill:#dcdcdc;}.cls-8{fill:#fdcda5;}</style></defs><path class="cls-1" d="M120.38,177.15l16.32-.09,10.3-13.7H127.85s-4-5.09-16.95-11.78c-7.75-4-13.5,2.58-13.5,2.58Z"/><circle class="cls-2" cx="48.82" cy="4.89" r="4.89"/><circle class="cls-2" cx="67.79" cy="4.89" r="4.89"/><circle class="cls-2" cx="81.86" cy="4.89" r="4.89"/><circle class="cls-3" cx="95.93" cy="4.89" r="4.89"/><circle class="cls-2" cx="37.12" cy="18.96" r="4.89"/><circle class="cls-3" cx="67.79" cy="18.96" r="4.89"/><circle class="cls-4" cx="81.86" cy="18.96" r="4.89"/><circle class="cls-2" cx="95.93" cy="18.96" r="4.89"/><circle class="cls-5" cx="53.71" cy="33.03" r="4.89"/><circle class="cls-2" cx="67.79" cy="33.03" r="4.89"/><circle class="cls-2" cx="81.86" cy="33.03" r="4.89"/><circle class="cls-2" cx="110.15" cy="33.03" r="4.89"/><circle class="cls-2" cx="53.71" cy="47.11" r="4.89"/><circle class="cls-4" cx="67.79" cy="47.11" r="4.89"/><circle class="cls-2" cx="81.86" cy="47.11" r="4.89"/><circle class="cls-3" cx="95.93" cy="47.11" r="4.89"/><g id="gradient-2"><path class="cls-6" d="M102.6,60s-5.75-6.61-13.5-2.58C76.2,64.15,72.15,69.24,72.15,69.24H53l10.3,13.7L79.62,83Z"/><path class="cls-1" d="M104.32,58c-12.9,6.7-16.94,11.78-16.94,11.78L62.67,67.52,44.29,51.42l18.1,4c9.17,2,13-5.9,14.44-9.34a2.3,2.3,0,0,0-1.25-3L75.32,43,40,33.12a2.16,2.16,0,0,0-.62-.09H.64V67.52h11a2.25,2.25,0,0,1,.85.16l45.36,18a2.37,2.37,0,0,0,1,.16L94,83.66A2.26,2.26,0,0,0,95.46,83l20.62-20.62a2.31,2.31,0,0,0,0-3.26l-.32-.26A10.67,10.67,0,0,0,104.32,58Z"/></g><rect class="cls-3" y="28.14" width="16.34" height="44.44"/><path class="cls-2" d="M105.36,90.47A2.57,2.57,0,0,1,108,87.88h38.82l12.95,12.94v54a2.57,2.57,0,0,1-2.59,2.59H107.84a2.56,2.56,0,0,1-2.58-2.59h0V90.47Z"/><path class="cls-7" d="M146.88,87.88V98.23a2.57,2.57,0,0,0,2.59,2.59h10.35Z"/><path class="cls-4" d="M116.39,141.8h6.51a1.69,1.69,0,0,0,1.66-1.65V114.82a1.69,1.69,0,0,0-1.66-1.66h-6.51a1.68,1.68,0,0,0-1.66,1.66v25.33a1.68,1.68,0,0,0,1.66,1.65Z"/><path class="cls-3" d="M129.41,141.8h6.51a1.69,1.69,0,0,0,1.66-1.65V101.91a1.69,1.69,0,0,0-1.66-1.66h-6.51a1.69,1.69,0,0,0-1.66,1.66v38.24a1.6,1.6,0,0,0,1.66,1.65Z"/><path class="cls-5" d="M142.3,141.8h6.39a1.69,1.69,0,0,0,1.66-1.65V124.88a1.69,1.69,0,0,0-1.66-1.65h-6.51a1.68,1.68,0,0,0-1.66,1.65v15.27a1.78,1.78,0,0,0,1.78,1.65Z"/><g id="gradient-2-2" data-name="gradient-2"><path class="cls-8" d="M84.24,153a1.92,1.92,0,0,0-.32.26,2.31,2.31,0,0,0,0,3.26l20.62,20.62a2.26,2.26,0,0,0,1.48.67l35.1,2.22a2.37,2.37,0,0,0,1-.16l45.36-18a2.25,2.25,0,0,1,.85-.16h11V127.15H160.62a2.57,2.57,0,0,0-.62.08l-35.32,9.91-.26.09a2.29,2.29,0,0,0-1.25,3c1.45,3.45,5.27,11.39,14.44,9.34l18.1-4-18.38,16.1-24.71,2.29s-4-5.09-16.94-11.78A10.67,10.67,0,0,0,84.24,153Z"/></g><rect class="cls-4" x="183.66" y="122.26" width="16.34" height="44.44" transform="translate(383.66 288.96) rotate(-180)"/></svg>